<?xml version="1.0" standalone="no"?>
<svg xmlns:xlink="http://www.w3.org/1999/xlink" id="wave" style="transform:rotate(0deg); transition: 0.3s" viewBox="0 0 1440 300" version="1.1" xmlns="http://www.w3.org/2000/svg"><defs><linearGradient id="sw-gradient-0" x1="0" x2="0" y1="1" y2="0"><stop stop-color="rgba(255, 255, 255, 1)" offset="0%"/><stop stop-color="rgba(255, 255, 255, 1)" offset="100%"/></linearGradient></defs><path style="transform:translate(0, 0px); opacity:1" fill="url(#sw-gradient-0)" d="M0,150L80,170C160,190,320,230,480,205C640,180,800,90,960,50C1120,10,1280,20,1440,50C1600,80,1760,130,1920,150C2080,170,2240,160,2400,130C2560,100,2720,50,2880,30C3040,10,3200,20,3360,50C3520,80,3680,130,3840,140C4000,150,4160,120,4320,125C4480,130,4640,170,4800,160C4960,150,5120,90,5280,100C5440,110,5600,190,5760,225C5920,260,6080,250,6240,240C6400,230,6560,220,6720,215C6880,210,7040,210,7200,220C7360,230,7520,250,7680,245C7840,240,8000,210,8160,175C8320,140,8480,100,8640,85C8800,70,8960,80,9120,80C9280,80,9440,70,9600,90C9760,110,9920,160,10080,155C10240,150,10400,90,10560,55C10720,20,10880,10,11040,40C11200,70,11360,140,11440,175L11520,210L11520,300L11440,300C11360,300,11200,300,11040,300C10880,300,10720,300,10560,300C10400,300,10240,300,10080,300C9920,300,9760,300,9600,300C9440,300,9280,300,9120,300C8960,300,8800,300,8640,300C8480,300,8320,300,8160,300C8000,300,7840,300,7680,300C7520,300,7360,300,7200,300C7040,300,6880,300,6720,300C6560,300,6400,300,6240,300C6080,300,5920,300,5760,300C5600,300,5440,300,5280,300C5120,300,4960,300,4800,300C4640,300,4480,300,4320,300C4160,300,4000,300,3840,300C3680,300,3520,300,3360,300C3200,300,3040,300,2880,300C2720,300,2560,300,2400,300C2240,300,2080,300,1920,300C1760,300,1600,300,1440,300C1280,300,1120,300,960,300C800,300,640,300,480,300C320,300,160,300,80,300L0,300Z"/></svg>