<?xml version="1.0" standalone="no"?>
<svg xmlns:xlink="http://www.w3.org/1999/xlink" id="wave" style="transform:rotate(0deg); transition: 0.3s" viewBox="0 0 1440 160" version="1.1" xmlns="http://www.w3.org/2000/svg"><defs><linearGradient id="sw-gradient-0" x1="0" x2="0" y1="1" y2="0"><stop stop-color="rgba(197, 197, 197, 1)" offset="0%"/><stop stop-color="rgba(197, 197, 197, 1)" offset="100%"/></linearGradient></defs><path style="transform:translate(0, 0px); opacity:1" fill="url(#sw-gradient-0)" d="M0,80L80,90.7C160,101,320,123,480,109.3C640,96,800,48,960,26.7C1120,5,1280,11,1440,26.7C1600,43,1760,69,1920,80C2080,91,2240,85,2400,69.3C2560,53,2720,27,2880,16C3040,5,3200,11,3360,26.7C3520,43,3680,69,3840,74.7C4000,80,4160,64,4320,66.7C4480,69,4640,91,4800,85.3C4960,80,5120,48,5280,53.3C5440,59,5600,101,5760,120C5920,139,6080,133,6240,128C6400,123,6560,117,6720,114.7C6880,112,7040,112,7200,117.3C7360,123,7520,133,7680,130.7C7840,128,8000,112,8160,93.3C8320,75,8480,53,8640,45.3C8800,37,8960,43,9120,42.7C9280,43,9440,37,9600,48C9760,59,9920,85,10080,82.7C10240,80,10400,48,10560,29.3C10720,11,10880,5,11040,21.3C11200,37,11360,75,11440,93.3L11520,112L11520,160L11440,160C11360,160,11200,160,11040,160C10880,160,10720,160,10560,160C10400,160,10240,160,10080,160C9920,160,9760,160,9600,160C9440,160,9280,160,9120,160C8960,160,8800,160,8640,160C8480,160,8320,160,8160,160C8000,160,7840,160,7680,160C7520,160,7360,160,7200,160C7040,160,6880,160,6720,160C6560,160,6400,160,6240,160C6080,160,5920,160,5760,160C5600,160,5440,160,5280,160C5120,160,4960,160,4800,160C4640,160,4480,160,4320,160C4160,160,4000,160,3840,160C3680,160,3520,160,3360,160C3200,160,3040,160,2880,160C2720,160,2560,160,2400,160C2240,160,2080,160,1920,160C1760,160,1600,160,1440,160C1280,160,1120,160,960,160C800,160,640,160,480,160C320,160,160,160,80,160L0,160Z"/></svg>